<svg xmlns="http://www.w3.org/2000/svg" fill="none" viewBox="81 106.8 438.59999999999997 87.6" style="max-height: 500px" width="438.59999999999997" height="87.6">
<path fill="white" d="M382.153 171.782C379.364 171.782 376.708 170.766 374.75 168.799C372.799 166.837 371.48 163.87 371.48 159.858C371.48 155.797 372.8 152.832 374.749 150.884C376.704 148.93 379.359 147.933 382.153 147.933C384.947 147.933 387.602 148.93 389.557 150.884C391.506 152.832 392.825 155.797 392.825 159.858C392.825 163.918 391.506 166.884 389.557 168.831C387.602 170.785 384.947 171.782 382.153 171.782ZM382.153 134.971C367.991 134.971 357.266 145.39 357.266 159.858C357.266 174.231 367.989 184.745 382.153 184.745C396.317 184.745 407.04 174.231 407.04 159.858C407.04 145.39 396.314 134.971 382.153 134.971Z" clip-rule="evenodd" fill-rule="evenodd"/>
<path fill="white" d="M264.394 171.782C261.605 171.782 258.949 170.766 256.991 168.799C255.04 166.837 253.721 163.87 253.721 159.858C253.721 155.797 255.041 152.832 256.99 150.884C258.945 148.93 261.6 147.933 264.394 147.933C267.188 147.933 269.843 148.93 271.798 150.884C273.746 152.832 275.066 155.797 275.066 159.858C275.066 163.918 273.746 166.884 271.798 168.831C269.843 170.785 267.188 171.782 264.394 171.782ZM264.394 134.971C250.232 134.971 239.507 145.39 239.507 159.858C239.507 174.231 250.23 184.745 264.394 184.745C278.558 184.745 289.281 174.231 289.281 159.858C289.281 145.39 278.555 134.971 264.394 134.971Z" clip-rule="evenodd" fill-rule="evenodd"/>
<path fill="white" d="M445.745 184.745H459.874V156.534C459.874 154.216 460.6 152.196 461.88 150.766C463.149 149.349 465.019 148.451 467.453 148.451C470.005 148.451 471.738 149.295 472.85 150.599C473.982 151.925 474.57 153.846 474.57 156.163V184.745H488.607V156.534C488.607 154.266 489.331 152.241 490.606 150.796C491.869 149.364 493.717 148.451 496.094 148.451C498.695 148.451 500.425 149.298 501.523 150.596C502.642 151.919 503.21 153.838 503.21 156.163V184.745H516.971V153.656C516.971 147.316 514.883 142.713 511.602 139.703C508.337 136.707 503.986 135.376 499.604 135.376C496.498 135.376 493.645 135.904 491.084 137.191C488.904 138.287 486.974 139.912 485.291 142.156C482.565 137.721 477.587 135.376 471.703 135.376C467.413 135.376 462.449 137.077 459.32 140.385V136.676H445.745V184.745Z" clip-rule="evenodd" fill-rule="evenodd"/>
<path fill="white" d="M440.426 136.559V150.958L439.323 150.736C438.007 150.471 436.871 150.383 435.821 150.383C432.826 150.383 430.163 151.116 428.252 152.898C426.354 154.667 425.045 157.614 425.045 162.367V184.744H410.954V136.657H424.677V141.158C428.071 137.078 433.341 136.285 436.65 136.285C437.71 136.285 438.67 136.382 439.581 136.474L440.426 136.559Z" clip-rule="evenodd" fill-rule="evenodd"/>
<path fill="white" d="M186.826 161.045L200.53 161.045L200.686 161.197C200.79 161.299 200.862 161.444 200.877 161.605C201.143 164.601 202.322 166.86 204.086 168.365C205.842 169.862 208.114 170.559 210.482 170.559C213.371 170.559 215.733 169.497 217.366 167.651C218.988 165.815 219.834 163.269 219.834 160.383V120.403H234.65V160.797C234.65 173.728 224.738 184.543 210.585 184.543C203.515 184.543 197.586 182.198 193.429 178.129C189.367 174.154 186.942 168.481 186.834 161.587L186.826 161.045Z" clip-rule="evenodd" fill-rule="evenodd"/>
<path fill="white" d="M355.26 127.021L356.042 127.244V116.338L355.682 116.175C355.131 115.924 354.245 115.697 353.221 115.532C352.184 115.365 350.961 115.254 349.714 115.254C344.857 115.254 339.396 116.861 336.568 119.757C333.742 122.651 332.184 126.776 332.184 131.711V133.961H325.084V146.287H332.184V184.738H346.432V146.287H356.042V133.961H346.432V131.884C346.432 129.667 347.208 128.39 348.2 127.646C349.222 126.879 350.566 126.611 351.792 126.611C353.635 126.611 354.704 126.862 355.26 127.021Z" clip-rule="evenodd" fill-rule="evenodd"/>
<path fill="white" d="M319.987 172.933L320.722 172.708V183.657L320.384 183.821C319.866 184.073 319.033 184.301 318.071 184.466C317.096 184.634 315.947 184.746 314.775 184.746C310.211 184.746 305.106 183.132 302.449 180.225C299.793 177.32 298.329 173.178 298.329 168.224V146.476H291.657V134.116L298.329 134.116V120.754H311.691V134.116L320.722 134.116V146.476L311.691 146.476V168.05C311.691 170.276 312.42 171.558 313.352 172.304C314.313 173.075 315.576 173.344 316.728 173.344C318.46 173.344 319.465 173.092 319.987 172.933Z" clip-rule="evenodd" fill-rule="evenodd"/>
<path fill="white" d="M104.726 187.286C106.371 188.863 105.209 191.565 102.873 191.565H88.2587C85.3753 191.565 83.0291 189.315 83.0291 186.55V172.536C83.0291 170.296 85.8467 169.182 87.4913 170.759L104.726 187.286Z"/>
<path fill="#FFB21D" d="M127.571 188.504C123.245 184.253 123.245 177.36 127.571 173.108L143.183 157.765C147.509 153.514 154.523 153.514 158.849 157.765C163.175 162.017 163.175 168.909 158.849 173.161L143.237 188.504C138.911 192.755 131.897 192.755 127.571 188.504Z"/>
<path fill="#0099FF" d="M86.3235 149.951C81.9976 145.7 81.9976 138.807 86.3235 134.556L109.788 111.496C114.114 107.245 121.128 107.245 125.453 111.496C129.779 115.747 129.779 122.64 125.453 126.892L101.989 149.951C97.6633 154.202 90.6495 154.202 86.3235 149.951Z"/>
<path fill="#FF6100" d="M107.805 168.367C103.479 164.116 103.479 157.223 107.805 152.972L143.306 118.083C147.632 113.832 154.645 113.832 158.971 118.083C163.297 122.334 163.297 129.227 158.971 133.478L123.47 168.367C119.144 172.618 112.13 172.618 107.805 168.367Z"/>
</svg>